<svg xmlns="http://www.w3.org/2000/svg" width="200.994" height="200.994" viewBox="0 0 200.994 200.994">
  <path id="approved" d="M29.319,170.737A100,100,0,1,1,170.675,29.258c.02.021.04.041.061.06A100,100,0,0,1,29.319,170.737ZM34.154,34.093a93.3,93.3,0,1,0,132.025.028l-.083-.082a93.3,93.3,0,0,0-131.942.054Zm76.124,141.7-10,1.8,6.96-7.56-4.88-9.519,9.22,4.779,7.02-7.639-1.361,10.559,9.22,4.76-10,1.74-1.32,10.58Zm-50.1-8.62a15.2,15.2,0,0,1-4.959-3.6l-17.695-17.7,5.756-5.755,3.617,3.617,17.579-17.579-7-7L33.829,142.809,28.5,137.481,57.785,108.2,75.4,125.814,52.186,149.032l7.389,7.389a9.148,9.148,0,0,0,2.275,1.808,1.975,1.975,0,0,0,1.75,0,8.912,8.912,0,0,0,2.236-1.769L79.8,142.5a16.6,16.6,0,0,0,2.178-2.489,1.791,1.791,0,0,0,.234-1.594,7.7,7.7,0,0,0-1.517-2.178l-4.666-5.056,6.689-4.2,5.134,5.834a14.33,14.33,0,0,1,2.917,4.667,5.405,5.405,0,0,1-.31,4,18.141,18.141,0,0,1-3.7,4.784L69.414,163.616a15.217,15.217,0,0,1-4.862,3.539,6,6,0,0,1-2.208.433A6.06,6.06,0,0,1,60.178,167.174Zm85.9-13.978-9.42-4.94,10.28-1.381,1.381-10.28,4.94,9.44,10.28-1.42-7.22,7.2,4.98,9.42-9.42-4.981-7.2,7.24Zm-51.838-.24,6.339-6.34a46.338,46.338,0,0,0,32.459-13.639h.02A46.339,46.339,0,0,0,146.7,100.5l6.34-6.339a53.215,53.215,0,0,1-58.8,58.8Zm-.869-23.486.156-6.69-9.217-9.217-3.228,3.228-5.211-5.212,8.322-8.322,14.39,14.389a11.332,11.332,0,0,0,4.316.428,8.927,8.927,0,0,0,3.753-1.459,28.416,28.416,0,0,0,4.376-3.713l18.278-18.279,3.967,5.678-17.734,17.735a26.252,26.252,0,0,1-7.214,5.464,15.246,15.246,0,0,1-7.6,1.108l.427,8.362Zm74.965-12.352-10.559,1.36,7.639-7.02-4.779-9.22L170.1,107.2l7.619-7.061-1.8,10,9.5,4.92-10.58,1.3-1.759,10Zm-84.8-19.111,6.923-6.922-5.328,1.049L84.7,88.673,79.37,94,75.364,90,97.844,67.516l4.239,4.239q-1.439,6.106-2.411,10.111l6.923-6.922L122.85,91.2q2.295,2.295,2.061,4.239T122,100.068l-2.878,2.877-4.512-2.567,2.411-2.411a2.25,2.25,0,0,0,.856-1.555,3.017,3.017,0,0,0-1.05-1.672l-.389-.39-4.472,4.473,4.822,4.822-4.861,4.862-4.823-4.823-4.2,4.2,5.095,5.095-4.745,4.745ZM97.416,102.4l2.061,2.062,4.2-4.2L101.615,98.2Zm-5.445-5.444,1.984,1.983,4.2-4.2-1.984-1.984Zm14.506-3.617,2.061,2.061,4.473-4.472-2.062-2.062Zm-5.445-5.445,1.984,1.984,4.472-4.472-1.983-1.984ZM86.837,86.534q2.138-.506,5.99-1.322l1.75-6.417Zm7.242-39.5a53.272,53.272,0,0,1,11.818,0l-6.34,6.34A46.573,46.573,0,0,0,53.44,99.5l-6.34,6.34A53.219,53.219,0,0,1,94.08,47.039ZM74.12,102.713q-3.695-.933-5.989-1.361L69.726,94.7l8.089,1.712,4.006.895-1.945,7Q77.814,103.646,74.12,102.713ZM24.281,89.878l-9.52-4.9,10.58-1.32,1.76-10,4.739,9.22,10.56-1.36L34.76,88.5l4.78,9.2L30.1,92.818l-7.618,7.059Zm107.864.817.778-8.167-8.751-8.751-4.083,4.083L114.8,72.572l9.373-9.373,14.313,14.312a11.169,11.169,0,0,0,4.025.252,10.049,10.049,0,0,0,3.83-1.5,26.718,26.718,0,0,0,4.629-3.85L167.886,55.5l3.928,5.95L155.129,78.133a25.379,25.379,0,0,1-7.525,5.542,14.794,14.794,0,0,1-7.72.992v9.956Zm11.162-23.529,5.25-5.25a8.558,8.558,0,0,0,1.556-1.906,1.408,1.408,0,0,0,.039-1.322,7.431,7.431,0,0,0-1.361-1.672L137.9,46.126,124.795,59.233l-4.862-4.862L133.04,41.265l-5.522-5.522,5.289-5.289,5.522,5.522,4.433-4.433,4.861,4.861-4.433,4.434L155.4,53.049a14.77,14.77,0,0,1,3.247,4.259,4.139,4.139,0,0,1-.117,3.5,17.88,17.88,0,0,1-3.519,4.453L149.3,70.978Zm-14.7-4.745,1.166-6.845q.544.078,6.145.7,1.049.116,3.306.35t3.46.427l-1.205,7.506A108.573,108.573,0,0,0,128.606,62.421Zm-9.334,1.362a7.346,7.346,0,0,1-.895-.156l-11.2-1.556.739-6.806q5.755.545,12.8,1.362l-.778,7.233Q119.662,63.821,119.273,63.783ZM46.86,54.039l-10.281,1.4,7.221-7.2-4.981-9.42,9.42,5,7.2-7.241L54.1,46.8l9.439,4.94L53.18,53.119l-1.38,10.3Zm36.019-22.26-9.24-4.739,10-1.76,1.32-10.561,4.86,9.481,10-1.8-6.959,7.638,4.9,9.44L88.539,34.7l-7.02,7.66Z" transform="translate(0.5 0.5)" fill="#28dd28" stroke="rgba(0,0,0,0)" stroke-width="1"/>
</svg>
